<svg id="visual" viewBox="0 0 1300 450" width="1300" height="450" xmlns="http://www.w3.org/2000/svg" xmlns:xlink="http://www.w3.org/1999/xlink" version="1.1"><rect x="0" y="0" width="1300" height="450" fill="#FFFFFF"></rect><defs><linearGradient id="grad1_0" x1="65.4%" y1="0%" x2="100%" y2="100%"><stop offset="-7.777777777777775%" stop-color="#003366" stop-opacity="1"></stop><stop offset="107.77777777777777%" stop-color="#003366" stop-opacity="1"></stop></linearGradient></defs><defs><linearGradient id="grad1_1" x1="65.4%" y1="0%" x2="100%" y2="100%"><stop offset="-7.777777777777775%" stop-color="#003366" stop-opacity="1"></stop><stop offset="107.77777777777777%" stop-color="#ffffff" stop-opacity="1"></stop></linearGradient></defs><defs><linearGradient id="grad2_0" x1="0%" y1="0%" x2="34.6%" y2="100%"><stop offset="-7.777777777777775%" stop-color="#003366" stop-opacity="1"></stop><stop offset="107.77777777777777%" stop-color="#003366" stop-opacity="1"></stop></linearGradient></defs><defs><linearGradient id="grad2_1" x1="0%" y1="0%" x2="34.6%" y2="100%"><stop offset="-7.777777777777775%" stop-color="#ffffff" stop-opacity="1"></stop><stop offset="107.77777777777777%" stop-color="#003366" stop-opacity="1"></stop></linearGradient></defs><g transform="translate(1300, 0)"><path d="M0 382.5C-52.6 379.5 -105.2 376.4 -146.4 353.4C-187.5 330.3 -217.2 287.2 -250.3 250.3C-283.5 213.4 -320.1 182.7 -342.8 142C-365.4 101.3 -373.9 50.6 -382.5 0L0 0Z" fill="#8892b0"></path><path d="M0 191.3C-26.3 189.7 -52.6 188.2 -73.2 176.7C-93.8 165.2 -108.6 143.6 -125.2 125.2C-141.7 106.7 -160.1 91.3 -171.4 71C-182.7 50.6 -187 25.3 -191.2 0L0 0Z" fill="#003366"></path></g><g transform="translate(0, 450)"><path d="M0 -382.5C43.8 -362.9 87.7 -343.2 135.9 -328C184 -312.7 236.5 -301.8 270.5 -270.5C304.4 -239.1 319.8 -187.4 335.4 -138.9C350.9 -90.4 366.7 -45.2 382.5 0L0 0Z" fill="#8892b0"></path><path d="M0 -191.2C21.9 -181.4 43.8 -171.6 67.9 -164C92 -156.4 118.3 -150.9 135.2 -135.2C152.2 -119.6 159.9 -93.7 167.7 -69.5C175.5 -45.2 183.4 -22.6 191.3 0L0 0Z" fill="#003366"></path></g></svg>